<?xml version="1.0" encoding="utf-8"?>
<!-- Generator: Adobe Illustrator 26.0.2, SVG Export Plug-In . SVG Version: 6.00 Build 0)  -->
<svg version="1.1"
	 id="svg3941" xmlns:cc="http://creativecommons.org/ns#" xmlns:dc="http://purl.org/dc/elements/1.1/" xmlns:rdf="http://www.w3.org/1999/02/22-rdf-syntax-ns#" xmlns:svg="http://www.w3.org/2000/svg"
	 xmlns="http://www.w3.org/2000/svg" xmlns:xlink="http://www.w3.org/1999/xlink" x="0px" y="0px" viewBox="0 0 514.3 525.2"
	 style="enable-background:new 0 0 514.3 525.2;" xml:space="preserve">
<style type="text/css">
	.st0{fill:#2C3E50;stroke:#000000;stroke-width:0.3833;}
	.st1{fill-opacity:0.2026;}
	.st2{fill:#FFFFFF;fill-opacity:0.5242;}
	.st3{fill:#FFFFFF;stroke:#000000;stroke-width:0.9156;}
	.st4{fill:#FFFFFF;stroke:url(#rect3725_00000067209669789442106910000015351132123685093260_);stroke-width:1.7411;}
	.st5{fill:#2C3E50;stroke:#000000;stroke-width:0.5013;}
	.st6{enable-background:new    ;}
	.st7{fill:#FF0000;}
	.st8{fill:#2C3E50;stroke:#000000;stroke-width:0.3502;}
	.st9{fill:#149C82;}
	.st10{fill:url(#rect4265_00000023253412091540389820000012601423218596540323_);}
	.st11{fill:#FFFFFF;fill-opacity:0.652;}
</style>
<g id="layer1">
	<path id="rect3707" class="st0" d="M23.5,126.6L210.8,12.2c26.2-16,68.7-16,94.9,0L493,126.6c26.2,16,26.2,42,0,58L305.7,298.9
		c-26.2,16-68.7,16-94.9,0L23.5,184.6C-2.7,168.6-2.7,142.6,23.5,126.6z"/>
	<path id="rect3010-5-3" class="st1" d="M226.9,9.6L11.9,141c0.1-2.2,4.8-6.7,11.4-10.7L212.1,14.9C218.7,10.8,224.9,8.7,226.9,9.6
		L226.9,9.6z"/>
	<path id="rect3010-5-3-4" class="st2" d="M285.1,8.8l218.1,134.4c-0.1-2.2-4.8-6.8-11.5-11l-191.4-118
		C293.5,10.1,287.2,7.9,285.1,8.8L285.1,8.8z"/>
	<rect id="rect2816" x="35.9" y="49.6" class="st3" width="443.7" height="365.8"/>
	
		<radialGradient id="rect3725_00000023987000176839645700000002061505630086097796_" cx="1312.4458" cy="-445.3382" r="41.6858" gradientTransform="matrix(1.1462 -0.2164 0.1286 0.456 -1186.0226 711.0976)" gradientUnits="userSpaceOnUse">
		<stop  offset="0" style="stop-color:#FF0000"/>
		<stop  offset="1" style="stop-color:#FF0000;stop-opacity:0.5345"/>
	</radialGradient>
	
		<polygon id="rect3725" style="fill:#FFFFFF;stroke:url(#rect3725_00000023987000176839645700000002061505630086097796_);stroke-width:1.7411;" points="
		208.9,214.7 302.7,197 313,233.5 219.2,251.2 	"/>
	<path id="path3614" class="st5" d="M134.2,469c0,0,123.6-129,123.6-167.6L3.3,155.4v319.1l131.2-7L134.2,469L134.2,469z"/>
	<g class="st6">
		<path class="st7" d="M226.1,241.6l-0.5-4l-1.2-7.7l-1-5.4c-0.1-0.6-0.2-1.2-0.4-1.7c-0.1-0.4-0.2-1.1-0.5-2.1
			c1.3-0.3,2.4-0.5,3.2-0.6c0.8-0.2,1.8-0.4,3.2-0.7c1.3-0.3,2.5-0.6,3.4-0.8c1.4-0.3,2.4-0.4,3.1-0.4s1.3,0.2,1.9,0.4
			c0.6,0.3,1.1,0.6,1.6,1c0.4,0.4,0.8,0.9,1.1,1.5c0.3,0.6,0.5,1.2,0.7,1.9c0.3,1.4,0.2,2.7-0.2,3.9c-0.4,1.3-1.2,2.3-2.2,3.1
			c-1.1,0.8-2.4,1.4-3.9,1.7c-0.5,0.1-1.2,0.2-1.9,0.2c-0.2-0.4-0.5-1.1-0.9-2s-0.7-1.5-1-1.9c0.5,0,0.9-0.1,1.4-0.2
			c1-0.2,1.7-0.6,2.1-1.2s0.5-1.3,0.4-2c-0.1-0.3-0.2-0.6-0.4-0.9c-0.2-0.2-0.4-0.4-0.7-0.5c-0.3-0.1-0.6-0.2-0.9-0.2
			s-0.6,0.1-1,0.1c-0.4,0.1-0.7,0.2-1.1,0.3l-1.3,0.4c0.3,2,0.6,4.2,1.1,6.6c0.8,4.4,1.3,7,1.5,7.9l0.4,2l-3,0.6
			C228.8,241,227.8,241.2,226.1,241.6z"/>
		<path class="st7" d="M243.2,238l0.8-2.5l4.7-16.5l0.5-1.8c0.1-0.5,0.3-1.3,0.6-2.3c1.8-0.4,3.1-0.6,3.9-0.8c1.4-0.3,2.7-0.6,4-0.9
			l3.6,5.9l7.1,11.2l1.3,2c-1.8,0.4-2.8,0.6-3.2,0.6c-0.9,0.2-2.1,0.5-3.8,0.8c-0.8-1.6-1.9-3.4-3.2-5.5l-7.7,1.6
			c-0.5,2-1,4.1-1.5,6.5c-1.9,0.4-3,0.6-3.5,0.7C246.1,237.3,244.9,237.6,243.2,238z M252.8,225.2l4.7-1c-1.9-3.3-3-5.2-3.2-5.5
			c-0.4,1.6-0.7,3-0.9,4L252.8,225.2z"/>
		<path class="st7" d="M271.3,232.1c-1.1-8.3-2.2-14.6-3.1-19l-0.4-2c1.8-0.4,3-0.6,3.6-0.7c0.3-0.1,1.4-0.3,3.3-0.7
			c0.3,2.3,0.6,4.5,0.9,6.6c0.5,2.9,0.9,5.5,1.4,8s0.9,4.6,1.2,6.3l-3.1,0.6C274.4,231.4,273.2,231.6,271.3,232.1z"/>
		<path class="st7" d="M281.9,229.8c-0.3-2.4-0.5-4.2-0.7-5.6c-0.3-2.1-0.8-4.8-1.3-8.1c-0.4-2.5-0.8-4.3-1-5.4l-0.4-1.8
			c1.2-0.2,2.2-0.4,3.1-0.6c0.8-0.2,1.9-0.4,3.3-0.8c1.3-0.3,2.6-0.6,3.8-0.9c1.4-0.3,2.6-0.5,3.6-0.5c1.1-0.1,2.1,0.1,3.1,0.4
			s1.9,0.8,2.6,1.5c0.8,0.7,1.4,1.6,2,2.6c0.5,1,0.9,2.1,1.2,3.3c0.2,1.1,0.4,2.3,0.3,3.4c-0.1,1.1-0.2,2.1-0.4,3.1
			c-0.3,0.9-0.6,1.8-1.1,2.5s-1,1.4-1.7,2c-0.5,0.4-1,0.8-1.5,1.1c-0.5,0.3-1.3,0.6-2.2,0.9c-1.1,0.4-2.3,0.7-3.7,1l-6.2,1.3
			C284.1,229.3,283.2,229.5,281.9,229.8z M287.5,223.9c0.6-0.1,1.2-0.2,1.8-0.3c1-0.2,1.9-0.5,2.7-0.9s1.4-0.9,1.9-1.6
			s0.8-1.6,0.9-2.6c0.1-1,0-2-0.2-3c-0.3-1.2-0.7-2.2-1.3-2.9c-0.6-0.7-1.3-1.2-2.1-1.4c-0.8-0.2-1.8-0.1-3.1,0.1
			c-0.7,0.2-1.6,0.4-2.6,0.6L287.5,223.9z"/>
	</g>
	<path id="path3614-3" class="st5" d="M381.4,469.1L257.8,301.4l254.5-146l0.1,319.1l-131.2-7L381.4,469.1L381.4,469.1z"/>
	<path id="path2818" class="st8" d="M512.3,474.6c2.6-1.8-511.6-1.8-508.9,0c2.6,1.8,259.8-173.4,254.5-173.4
		C252.5,301.2,509.6,476.4,512.3,474.6L512.3,474.6z"/>
	<g id="flowRoot3709" transform="translate(-734.64 -197.34)">
		<path id="path4072" class="st9" d="M839,275.8h9.1v67.1H839V275.8"/>
		<path id="path4074" class="st9" d="M907.6,312.5v30.4h-8.3v-30.1c0-4.8-0.9-8.3-2.8-10.7c-1.9-2.4-4.6-3.5-8.4-3.5
			c-4.5,0-8,1.4-10.6,4.3c-2.6,2.8-3.9,6.7-3.9,11.6v28.4h-8.3v-50.3h8.3v7.8c2-3,4.3-5.3,7-6.8s5.8-2.2,9.3-2.2
			c5.8,0,10.2,1.8,13.1,5.4C906.1,300.3,907.6,305.6,907.6,312.5"/>
		<path id="path4076" class="st9" d="M918.2,292.6h8.8l15.7,42.2l15.7-42.2h8.8l-18.9,50.3h-11.2L918.2,292.6"/>
		<path id="path4078" class="st9" d="M998.1,298.4c-4.4,0-7.9,1.7-10.5,5.2c-2.6,3.4-3.9,8.2-3.9,14.2s1.3,10.8,3.8,14.2
			c2.6,3.4,6.1,5.2,10.6,5.2c4.4,0,7.9-1.7,10.5-5.2s3.9-8.2,3.9-14.2s-1.3-10.7-3.9-14.1C1005.9,300.1,1002.5,298.4,998.1,298.4
			 M998.1,291.4c7.2,0,12.8,2.3,16.9,7s6.2,11.1,6.2,19.4c0,8.2-2.1,14.7-6.2,19.4c-4.1,4.7-9.7,7-16.9,7c-7.2,0-12.9-2.3-17-7
			S975,326,975,317.8c0-8.3,2-14.7,6.1-19.4C985.2,293.7,990.8,291.4,998.1,291.4"/>
		<path id="path4080" class="st9" d="M1034.9,292.6h8.3v50.3h-8.3V292.6 M1034.9,273h8.3v10.5h-8.3V273"/>
		<path id="path4082" class="st9" d="M1096.6,294.5v7.7c-2.3-1.3-4.7-2.2-7.1-2.9c-2.3-0.7-4.7-1-7.1-1c-5.4,0-9.5,1.7-12.5,5.1
			s-4.4,8.1-4.4,14.3c0,6.1,1.5,10.9,4.4,14.3c3,3.4,7.1,5.1,12.5,5.1c2.4,0,4.8-0.3,7.1-0.9c2.4-0.7,4.7-1.6,7.1-2.9v7.6
			c-2.3,1.1-4.7,1.9-7.2,2.4s-5.1,0.8-7.9,0.8c-7.6,0-13.6-2.4-18.1-7.1c-4.5-4.8-6.7-11.2-6.7-19.3c0-8.2,2.2-14.7,6.7-19.4
			c4.5-4.7,10.7-7.1,18.6-7.1c2.5,0,5,0.3,7.5,0.8C1091.9,292.7,1094.3,293.5,1096.6,294.5"/>
		<path id="path4084" class="st9" d="M1154.1,315.7v4h-38c0.4,5.7,2.1,10,5.1,13c3.1,3,7.4,4.4,12.8,4.4c3.2,0,6.2-0.4,9.2-1.2
			c3-0.8,6-1.9,8.9-3.5v7.8c-3,1.3-6,2.2-9.1,2.9c-3.1,0.7-6.3,1-9.5,1c-8,0-14.4-2.3-19.1-7s-7-11-7-19c0-8.2,2.2-14.8,6.6-19.6
			c4.5-4.9,10.5-7.3,18-7.3c6.8,0,12.1,2.2,16,6.6C1152.1,302.3,1154.1,308.2,1154.1,315.7 M1145.8,313.3c-0.1-4.5-1.3-8.1-3.8-10.8
			c-2.5-2.7-5.7-4-9.8-4c-4.6,0-8.3,1.3-11.1,3.9c-2.8,2.6-4.3,6.3-4.8,11L1145.8,313.3"/>
	</g>
	
		<radialGradient id="rect4265_00000018231840693236902090000011977946070464124563_" cx="1292.6125" cy="4331.5488" r="258.2036" gradientTransform="matrix(-1.1079 0 0 -5.810700e-02 1689.2355 761.915)" gradientUnits="userSpaceOnUse">
		<stop  offset="0" style="stop-color:#000000;stop-opacity:0.5776"/>
		<stop  offset="1" style="stop-color:#000000;stop-opacity:0"/>
	</radialGradient>
	<path id="rect4265" style="fill:url(#rect4265_00000018231840693236902090000011977946070464124563_);" d="M15,495.2h484.3
		c8.3,0,15,6.7,15,15l0,0c0,8.3-6.7,15-15,15H15c-8.3,0-15-6.7-15-15l0,0C0,501.9,6.7,495.2,15,495.2z"/>
	<path id="rect3010" class="st11" d="M505.8,162.9v307.2c2.3-1.5,4-9.3,4-18.8V181.7C509.8,172.2,508.1,164.5,505.8,162.9
		L505.8,162.9z"/>
	<path id="rect3010-5" class="st1" d="M9.3,158.7v309.5c-2.3-1.5-4-9.4-4-18.9V177.5C5.2,168,7,160.2,9.3,158.7L9.3,158.7z"/>
	<path id="rect3010-5-5" class="st1" d="M8.5,467.8h494.6c-2.4,2.3-15,4-30.2,4H38.6C23.4,471.9,10.9,470.1,8.5,467.8L8.5,467.8z"/>
</g>
</svg>
